# xmcd
#
# Track frame offsets: 
#        182
#        17120
#        37157
#        55360
#        81985
#        100500
#
# Disc length: 1611 seconds
#
# Revision: 0
# Processed by: cddbd v1.5.2PL0 Copyright (c) Steve Scherf et al.
# Submitted via: ExactAudioCopy v1.0b3
#
DISCID=47064906
DTITLE=Luke - Luke's Sheila
DYEAR=1997
DGENRE=Rap
TTITLE0=Luke's Sheila (Radio Edit)
TTITLE1=Luke's Sheila (Instrumental)
TTITLE2=Luke's Sheila (Frank DeLour Remix Radio Edit)
TTITLE3=Luke's Sheila (Frank DeLour Instrumental)
TTITLE4=Luke's Sheila (Johnny J. Remix Edit)
TTITLE5=uke's Sheila (Johnny J. Instrumental)
EXTD=
EXTT0=
EXTT1=
EXTT2=
EXTT3=
EXTT4=
EXTT5=
PLAYORDER=
